name N:\Shared_Data\HIL\Data Collection\CoPD-X-MoreData\processed\iteration012\grf0012.mot
datacolumns 19
datarows 33
range 2321.842844 2321.896181
endheader
time	ground_force1_vx	ground_force1_vy	ground_force1_vz	ground_force1_px	ground_force1_py	ground_force1_pz	ground_force2_vx	ground_force2_vy	ground_force2_vz	ground_force2_px	ground_force2_py	ground_force2_pz	ground_torque1_x	ground_torque1_y	ground_torque1_z	ground_torque2_x	ground_torque2_y	ground_torque2_z	
2321.842844	-3.608078367	3.114962718	-2.453360344	5.108477442	0	0.1461329763	-44.32507829	804.3615202	-56.38406113	4.882986695	0	-0.04541901783	0	-0.629067167	0	0	-13.27933311	0	
2321.844515	-4.800079214	5.104856812	-3.378346986	5.109815445	0	0.1461329763	-44.988915	802.4630227	-56.31044077	4.883432139	0	-0.04542273366	0	-0.9146907194	0	0	-13.22280686	0	
2321.846174	-6.05129164	7.507174567	-4.385506377	5.111153449	0	0.1461329763	-45.66615394	800.4540936	-56.21570339	4.883871473	0	-0.04542379354	0	-1.239056281	0	0	-13.16710422	0	
2321.847848	-7.315652051	10.31973881	-5.447362755	5.112491452	0	0.1461329763	-46.3567788	798.3334178	-56.09929033	4.884304434	0	-0.04542214552	0	-1.596713559	0	0	-13.11230429	0	
2321.849512	-8.544582481	13.52985712	-6.533598848	5.113829456	0	0.1461329763	-47.06069731	796.0996355	-55.96066827	4.884730799	0	-0.04541773783	0	-1.980999628	0	0	-13.05847959	0	
2321.851181	-9.690600001	17.11646717	-7.613395422	5.115167459	0	0.1461329763	-47.77773758	793.7513381	-55.79933117	4.885150397	0	-0.04541051858	0	-2.384591386	0	0	-13.00569553	0	
2321.85284	-10.71072797	21.05285884	-8.65773129	5.116505463	0	0.1461329763	-48.5076448	791.2870648	-55.6148022	4.885563111	0	-0.04540043548	0	-2.800088667	0	0	-12.95400998	0	
2321.854511	-11.56927715	25.30957466	-9.641346681	5.117843467	0	0.1461329763	-49.25007812	788.7052999	-55.40663571	4.885968882	0	-0.04538743552	0	-3.220550323	0	0	-12.90347268	0	
2321.856173	-12.23972277	29.85713859	-10.54416927	5.11918147	0	0.1461329763	-50.00460795	786.0044706	-55.17441914	4.886367716	0	-0.0453714647	0	-3.639925508	0	0	-12.85412483	0	
2321.857841	-12.70558219	34.66836132	-11.3521161	5.120519474	0	0.1461329763	-50.77071351	783.1829454	-54.91777486	4.886759688	0	-0.0453524677	0	-4.053348496	0	0	-12.80599859	0	
2321.859512	-12.96034282	39.72007298	-12.05728075	5.121857477	0	0.1461329763	-51.54778077	780.2390337	-54.63636211	4.887144943	0	-0.04533038764	0	-4.457288767	0	0	-12.75911667	0	
2321.861177	-13.00658904	44.99422468	-12.65758265	5.123195481	0	0.1461329763	-52.33510079	777.1709858	-54.32987874	4.887523704	0	-0.04530516579	0	-4.849565789	0	0	-12.71349184	0	
2321.862841	-12.85453213	50.47837206	-13.15599664	5.124533484	0	0.1461329763	-53.1318684	773.9769939	-53.998063	4.887896273	0	-0.04527674132	0	-5.229249783	0	0	-12.6691266	0	
2321.864511	-12.52016775	56.16560806	-13.55949914	5.125871488	0	0.1461329763	-53.93718132	770.655194	-53.64069532	4.888263032	0	-0.04524505104	0	-5.596476556	0	0	-12.6260127	0	
2321.866181	-12.02327867	62.05404692	-13.87786822	5.127209491	0	0.1461329763	-54.75003974	767.2036689	-53.25759992	4.888624449	0	-0.04521002918	0	-5.952206995	0	0	-12.58413084	0	
2321.867843	-11.38547443	68.14598039	-14.12246221	5.128547495	0	0.1461329763	-55.56934629	763.6204513	-52.84864641	4.888981077	0	-0.04517160719	0	-6.29796085	0	0	-12.54345026	0	
2321.869512	-10.62842094	74.44683099	-14.30508031	5.129885498	0	0.1461329763	-56.39390651	759.9035291	-52.41375139	4.889333557	0	-0.04512971355	0	-6.635551117	0	0	-12.50392846	0	
2321.871179	-9.772369244	80.96402032	-14.43698248	5.131223502	0	0.1461329763	-57.22242975	756.0508502	-51.95287982	4.889682619	0	-0.04508427357	0	-6.966840283	0	0	-12.46551086	0	
2321.872843	-8.83504738	87.70585461	-14.52811854	5.132561505	0	0.1461329763	-58.05353059	752.0603298	-51.46604643	4.890029079	0	-0.0450352093	0	-7.293533966	0	0	-12.42813056	0	
2321.874511	-7.830938327	94.68050954	-14.58658989	5.133899509	0	0.1461329763	-58.88573071	747.9298568	-50.95331697	4.890373844	0	-0.04498243938	0	-7.617021504	0	0	-12.39170807	0	
2321.876178	-6.770931359	101.8951725	-14.61834446	5.135237512	0	0.1461329763	-59.71746129	743.657303	-50.41480936	4.890717906	0	-0.04492587893	0	-7.938267536	0	0	-12.35615116	0	
2321.877845	-5.662307036	109.3553776	-14.62708665	5.136575516	0	0.1461329763	-60.5470659	739.2405319	-49.85069471	4.891062345	0	-0.04486543955	0	-8.257753808	0	0	-12.32135466	0	
2321.879514	-4.508997072	117.0645479	-14.61437077	5.137913519	0	0.1461329763	-61.37280388	734.6774086	-49.26119822	4.891408326	0	-0.04480102922	0	-8.575466674	0	0	-12.28720038	0	
2321.881175	-3.31204981	125.0237386	-14.57983768	5.139251523	0	0.1461329763	-62.19285426	729.9658112	-48.64659993	4.891757096	0	-0.04473255232	0	-8.890923045	0	0	-12.25355708	0	
2321.882839	-2.070229028	133.2315645	-14.5215513	5.140589526	0	0.1461329763	-63.00532014	725.1036425	-48.00723531	4.89210998	0	-0.04465990964	0	-9.203225956	0	0	-12.22028045	0	
2321.884508	-0.7806770336	141.6842804	-14.43639159	5.14192753	0	0.1461329763	-63.80823363	720.0888426	-47.3434957	4.892468382	0	-0.04458299843	0	-9.511140331	0	0	-12.18721322	0	
2321.886176	0.5604189942	150.3759813	-14.32046489	5.143265533	0	0.1461329763	-64.59956127	714.9194024	-46.65582854	4.892833778	0	-0.04450171247	0	-9.81317976	0	0	-12.15418532	0	
2321.887853	1.957207208	159.2988834	-14.16949828	5.144603537	0	0.1461329763	-65.37720983	709.5933776	-45.94473745	4.893207714	0	-0.04441594212	0	-10.10769602	0	0	-12.12101412	0	
2321.889507	3.413634773	168.4436528	-13.97919229	5.14594154	0	0.1461329763	-66.13903273	704.108904	-45.21078208	4.8935918	0	-0.0443255745	0	-10.3929645	0	0	-12.08750475	0	
2321.891174	4.933018662	177.7997464	-13.74551428	5.147279544	0	0.1461329763	-66.88283677	698.4642125	-44.45457772	4.893987708	0	-0.04423049354	0	-10.66726016	0	0	-12.05345051	0	
2321.89284	6.517734727	187.355741	-13.46492262	5.148617547	0	0.1461329763	-67.60638928	692.6576455	-43.67679484	4.894397163	0	-0.04413058017	0	-10.92892065	0	0	-12.0186334	0	
2321.894512	8.169025212	197.0996293	-13.13451885	5.149955551	0	0.1461329763	-68.30742572	686.6876736	-42.87815818	4.894821944	0	-0.04402571244	0	-11.17639458	0	0	-11.98282473	0	
2321.896181	9.886916095	207.019069	-12.75213098	5.151293554	0	0.1461329763	-68.98365752	680.5529118	-42.05944585	4.895263871	0	-0.04391576571	0	-11.40827455	0	0	-11.9457858	0	
